<?xml version="1.0" encoding="iso-8859-1"?>
<!-- Generator: Adobe Illustrator 19.0.0, SVG Export Plug-In . SVG Version: 6.00 Build 0)  -->
<svg xmlns="http://www.w3.org/2000/svg" xmlns:xlink="http://www.w3.org/1999/xlink" version="1.1" id="Layer_1" x="0px" y="0px" viewBox="0 0 512.568 512.568" style="fill: rgb(255, 255, 255);" xml:space="preserve" width="100%" height="100%">
<path d="M254.284,325.284c-38.598,0-70-31.402-70-70s31.402-70,70-70s70,31.402,70,70S292.882,325.284,254.284,325.284z   M254.284,225.284c-16.542,0-30,13.458-30,30s13.458,30,30,30s30-13.458,30-30S270.826,225.284,254.284,225.284z M360.427,407.426  l-28.285-28.284L255.284,456l-73.857-73.858l-28.285,28.284l102.143,102.142L360.427,407.426z M360.427,105.142L255.284,0  L152.142,103.142l28.285,28.284l74.857-74.858l76.857,76.858L360.427,105.142z"/>















</svg>
